<?xml version="1.0" encoding="UTF-8"?>
<svg id="Layer_2" data-name="Layer 2" xmlns="http://www.w3.org/2000/svg" viewBox="0 0 402.24 85.25">
  <defs>
    <style>
      .cls-1 {
        fill: #8a35ed;
      }
    </style>
  </defs>
  <g id="Layer_1-2" data-name="Layer 1">
    <g>
      <path class="cls-1" d="m363.68,3.34c-.62.13-1.15.43-1.58.92-.45.51-.37.63.26.37,4.51-1.83,8.16-.67,10.96,3.48,5.41,8.03,9.63,21.17,22.89,15.41,2.47-1.07,4.46-2.45,5.95-4.12.11-.12.1-.23-.01-.34l-.2-.2s-.06-.03-.09,0c-2.31,2.38-4.67,2.9-7.08,1.57-3.35-1.85-6.48-8.33-8.44-11.57-1.55-2.56-4.46-6.14-7.22-7.43-4.98-2.33-9.83-1.82-14.55,1.52-.27.19-.56.32-.89.39" vector-effect="non-scaling-stroke"/>
      <path class="cls-1" d="m87.85,10.93c3.33.91,4.38,3.87,4.38,6.95,0,14.52.01,29.33,0,44.43,0,3.24-1.44,5.57-4.38,6.82-.57.24-.55.36.08.36h14.99c.35-.01.43-.16.25-.45-.96-1.55-1.44-3.24-1.44-5.07-.02-18.67-.02-37.72,0-57.16,0-.48-.22-.63-.67-.44-4.27,1.82-8.66,3.12-13.18,3.89-1.02.17-1.03.4-.04.67" vector-effect="non-scaling-stroke"/>
      <path class="cls-1" d="m134.33,10.82c3.67,1.02,4.71,3.97,4.71,7.37,0,15.67,0,30.34-.01,44.03,0,2.27-.75,4.17-2.23,5.7-.57.59-1.49.79-2.19,1.15-.52.27-.49.41.1.41l17.95.02c.72,0,.75-.13.08-.4-2.79-1.13-4.19-3.37-4.2-6.72-.05-20.23-.05-38.73-.01-55.52,0-.37-.18-.5-.53-.37-4.73,1.65-9.28,2.92-13.65,3.81-.74.15-.75.32-.02.52" vector-effect="non-scaling-stroke"/>
      <path class="cls-1" d="m348.44,68.1l-.91.85c-.41.38-.33.57.23.56,5.53-.09,10.38-.06,14.55.08,2.12.07,2.2-.31.24-1.13-2.41-1.01-3.61-2.94-3.62-5.78-.05-18.69-.05-37.38-.01-56.05,0-.19-.15-.35-.34-.35-.04,0-.08,0-.12.02-4.53,1.59-9.08,2.89-13.66,3.9-.94.21-.95.45-.02.72,4.71,1.38,4.65,5.21,4.65,9.21,0,15.65-.03,30.34-.1,44.09,0,.93-.13,1.92-.37,2.99-.09.35-.26.64-.52.89" vector-effect="non-scaling-stroke"/>
      <path class="cls-1" d="m81.37,16.54c0-3.37-2.73-6.1-6.1-6.1s-6.1,2.73-6.1,6.1,2.73,6.1,6.1,6.1,6.1-2.73,6.1-6.1h0" vector-effect="non-scaling-stroke"/>
      <path class="cls-1" d="m170.57,16.54c0-3.36-2.73-6.09-6.09-6.09h0c-3.36,0-6.09,2.73-6.09,6.09s2.73,6.09,6.09,6.09c3.36,0,6.09-2.73,6.09-6.09h0" vector-effect="non-scaling-stroke"/>
      <path class="cls-1" d="m16.8,11.2c-6.09.27-10.22,2.63-12.39,7.07-3.06,6.26.22,14.92,1.66,21.16,1.15,4.94-.52,7.96-4.99,9.07-1.46.37-1.44.54.06.51,5.01-.08,9.08-1.9,12.21-5.47,4.91-5.62,1.42-13.36-.38-19.33-1.35-4.49-1.72-11,3.88-12.7.79-.24.78-.34-.05-.31" vector-effect="non-scaling-stroke"/>
      <path class="cls-1" d="m23.79,62.86c-.03,2.59-1.67,4.8-4.03,5.98-.85.43-.8.64.15.64h17.97c.97.01,1.02-.2.15-.63-2.75-1.34-4.12-3.6-4.12-6.77.01-12.59-.01-25.78-.08-39.57,0-2.24-.47-4.33-1.39-6.28-2.11-4.43-6-4.51-10.39-5.15-.42-.07-.51.08-.27.43,1.25,1.8,1.88,3.84,1.91,6.11.21,15.35.24,30.43.1,45.24" vector-effect="non-scaling-stroke"/>
      <path class="cls-1" d="m45.52,37.91s.03-.07.06-.07h0c3.31-.22,6.25-1.04,8.83-2.46,9.22-5.07,9.28-19.53-2.03-22.25-4.22-1.01-9.19-1.36-14.9-1.05-.09,0-.14.06-.14.16h0c0,.09.04.13.13.13,5.81.14,11.07,1.84,12.2,8.42,1.46,8.47-.67,16.1-10.74,17.2-.11.01-.17.07-.16.18h0c0,.18.09.26.26.26,8.26-.06,12.8,4.07,13.62,12.38.66,6.61-.6,16.85-8.77,18.29-.8.14-.79.2.02.19,9.12-.19,20.01-4.06,21.08-14.41,1.21-11.58-9.45-16.81-19.23-16.54-.13,0-.19-.06-.2-.18l-.03-.25" vector-effect="non-scaling-stroke"/>
      <path class="cls-1" d="m80.19,29.04c-4.89,1.96-9.35,3.3-13.38,4.03-.62.11-.64.29-.06.53,2.79,1.14,4.22,3.25,4.28,6.34.15,8.07.16,15.65.02,22.76-.06,3.08-1.51,5.16-4.26,6.33-.69.3-.66.45.09.45l17.77.02c.87,0,.9-.16.09-.47-3.02-1.16-4.15-3.92-4.15-6.99.03-10.85.02-21.76-.01-32.73,0-.16-.13-.29-.29-.29-.03,0-.07,0-.1.02" vector-effect="non-scaling-stroke"/>
      <path class="cls-1" d="m155.94,33.61c3.74,1.29,4.43,4.61,4.43,8.12,0,6.81,0,13.61,0,20.42,0,2.96-1.58,5.41-4.74,7.34-.03.01-.03.02,0,.02l18.02-.03c1.03,0,1.07-.21.12-.6-2.62-1.08-3.94-3.24-3.95-6.48-.05-11.69-.06-22.7-.03-33.03,0-.33-.15-.44-.45-.31-4.44,1.83-8.89,3.17-13.36,4.03-.66.13-.67.3-.04.52" vector-effect="non-scaling-stroke"/>
      <path class="cls-1" d="m224.7,33.81c3.63,1.04,4.68,3.85,4.69,7.27.03,14.61.02,27.09-.03,37.44,0,2.76-1.5,4.95-3.88,6.26-.56.31-.52.46.11.46h17.28c.6,0,.63-.12.1-.39-3.13-1.6-4.07-4-4.07-7.34,0-15.07,0-31.05.01-47.95,0-.16-.13-.29-.29-.29-.03,0-.07,0-.1.02-4.54,1.82-9.18,3.39-13.79,4.05-.75.11-.76.26-.03.47" vector-effect="non-scaling-stroke"/>
      <path class="cls-1" d="m302.46,37.69c2.9,8.7,2.96,17,.17,24.89-.77,2.18-2.33,4.99-4.5,6.04-1.6.77-1.52,1.07.25.9,12.04-1.21,18.79-13.09,16.39-24.35-2.05-9.63-8.25-14.83-18.6-15.6-.85-.06-.88.07-.09.38,3.25,1.29,5.33,4.58,6.38,7.74" vector-effect="non-scaling-stroke"/>
      <path class="cls-1" d="m196.54,29.58c-13.41,1.03-20.34,13.11-17.36,25.78,1.97,8.4,9.67,14.18,18.37,14.11.11,0,.17-.07.17-.19h0c0-.13-.07-.2-.2-.2-3.14.03-5.69-5.27-6.54-7.9-2.71-8.42-3.96-26.51,5.64-31.29.49-.25.47-.35-.08-.31" vector-effect="non-scaling-stroke"/>
      <path class="cls-1" d="m207.14,64.28c-.95,2.21-2.45,3.78-4.48,4.71-.97.45-.92.64.15.58,13.66-.78,20.42-14.7,16.54-26.92-2.46-7.77-8.2-12.11-17.21-13.02-1.4-.14-1.46.08-.17.66,3.26,1.48,5.24,5.48,6.19,8.76,2.65,9.16,2.31,17.57-1.02,25.23" vector-effect="non-scaling-stroke"/>
      <path class="cls-1" d="m291.08,29.54c-12.74,1.44-19.88,12.34-17.37,24.63,1.69,8.3,6.9,13.35,15.64,15.15.83.17,1.68.21,2.57.13.85-.08.86-.21.02-.39-3.51-.74-5.76-6.09-6.6-9.14-2.31-8.41-2.73-20.61,2.94-27.79.86-1.08,1.85-1.46,2.95-2.15.6-.37.55-.52-.15-.44" vector-effect="non-scaling-stroke"/>
      <path class="cls-1" d="m115.63,34.41c6.43,7.33,5.68,26.52-2.83,32.47-1.63,1.14-3.88,1.13-5.81,1.14-.74,0-.76.13-.06.36,11.63,3.92,21.56-3.5,23.14-15.21.82-6.05.09-11.27-2.2-15.64-4.33-8.28-13.8-10.19-21.24-4.56-.08.06-.09.13-.04.21l.16.24s.05.04.08.02c3.37-2.19,6.31-1.87,8.8.97" vector-effect="non-scaling-stroke"/>
      <path class="cls-1" d="m254.23,61.81c-2.35,4.76-5.88,6.79-10.6,6.09-.03,0-.05.02-.05.05l-.05.25c-.01.09.02.14.1.16,8.87,2.44,15.58.42,20.12-6.05,4.14-5.89,4.7-14.59,2.65-21.39-3.16-10.52-13.64-14.62-22.79-7.86-.12.09-.16.21-.12.36.03.11.1.14.21.09,4.34-2.22,7.75-1.37,10.23,2.54,4.1,6.46,3.96,18.31.3,25.76" vector-effect="non-scaling-stroke"/>
      <path class="cls-1" d="m345.02,65.41c-7.47,4.91-11.76-1.65-13-8-.73-3.76-.7-8.27.1-13.52,1.02-6.74,5.12-14.4,13.01-12.1.21.06.34,0,.41-.21l.07-.24s0-.07-.04-.09c-3.65-1.4-7.36-1.74-11.13-1.02-11.54,2.19-14.84,15.46-13.24,25.23.7,4.29,2.15,7.57,4.36,9.84,4.01,4.13,8.79,5.38,14.35,3.73,2.2-.65,3.98-1.76,5.35-3.35.58-.67.5-.76-.24-.27" vector-effect="non-scaling-stroke"/>
    </g>
    <path class="cls-1" d="m364.57,2.95c4.72-3.34,9.57-3.85,14.55-1.52,2.76,1.29,5.67,4.87,7.22,7.43,1.96,3.24,5.09,9.72,8.44,11.57,2.41,1.33,4.77.81,7.08-1.57.03-.03.06-.03.09,0l.2.2c.11.11.12.22.01.34-1.49,1.67-3.48,3.05-5.95,4.12-13.26,5.76-17.48-7.38-22.89-15.41-2.8-4.15-6.45-5.31-10.96-3.48-.63.26-.71.14-.26-.37.43-.49.96-.79,1.58-.92.33-.07.62-.2.89-.39Z"/>
    <path class="cls-1" d="m92.23,17.88c0-3.08-1.05-6.04-4.38-6.95-.99-.27-.98-.5.04-.67,4.52-.77,8.91-2.07,13.18-3.89.45-.19.67-.04.67.44-.02,19.44-.02,38.49,0,57.16,0,1.83.48,3.52,1.44,5.07.18.29.1.44-.25.44h-14.99c-.63.01-.65-.11-.08-.35,2.94-1.25,4.37-3.58,4.38-6.82,0-15.1,0-29.91,0-44.43Z"/>
    <path class="cls-1" d="m139.04,18.19c0-3.4-1.04-6.35-4.71-7.37-.73-.2-.72-.37.02-.52,4.37-.89,8.92-2.16,13.65-3.81.35-.13.53,0,.53.37-.04,16.79-.04,35.29.01,55.52,0,3.35,1.41,5.59,4.2,6.72.67.27.64.4-.08.4l-17.95-.02c-.59,0-.62-.14-.1-.41.7-.36,1.62-.56,2.19-1.15,1.48-1.53,2.22-3.43,2.23-5.7,0-13.69.01-28.36.01-44.03Z"/>
    <path class="cls-1" d="m348.96,67.21c.24-1.07.36-2.06.37-2.99.07-13.75.1-28.44.1-44.09,0-4,.06-7.83-4.65-9.21-.93-.27-.92-.51.02-.72,4.58-1.01,9.13-2.31,13.66-3.9.18-.07.37.03.44.21.01.04.02.08.02.12-.04,18.67-.04,37.36.01,56.05,0,2.84,1.21,4.77,3.62,5.78,1.96.82,1.88,1.2-.24,1.13-4.17-.14-9.02-.17-14.55-.08-.56,0-.64-.18-.23-.56l.91-.85c.26-.25.43-.54.52-.89Z"/>
    <circle class="cls-1" cx="75.27" cy="16.54" r="6.1"/>
    <circle class="cls-1" cx="164.48" cy="16.54" r="6.09"/>
    <path class="cls-1" d="m16.8,11.2c.83-.03.84.07.05.31-5.6,1.7-5.23,8.21-3.88,12.7,1.8,5.97,5.29,13.71.38,19.33-3.13,3.57-7.2,5.39-12.21,5.47-1.5.03-1.52-.14-.06-.51,4.47-1.11,6.14-4.13,4.99-9.07-1.44-6.24-4.72-14.9-1.66-21.16,2.17-4.44,6.3-6.8,12.39-7.07Z"/>
    <path class="cls-1" d="m19.76,68.84c2.36-1.18,4-3.39,4.03-5.98.14-14.81.11-29.89-.1-45.24-.03-2.27-.66-4.31-1.91-6.11-.24-.35-.15-.5.27-.43,4.39.64,8.28.72,10.39,5.15.92,1.95,1.38,4.04,1.39,6.28.07,13.79.09,26.98.08,39.57,0,3.17,1.37,5.43,4.12,6.77.87.43.82.64-.15.64h-17.97c-.95-.01-1-.22-.15-.65Z"/>
    <path class="cls-1" d="m45.75,38.34c9.78-.27,20.44,4.96,19.23,16.54-1.07,10.35-11.96,14.22-21.08,14.41-.81.01-.82-.05-.02-.19,8.17-1.44,9.43-11.68,8.77-18.29-.82-8.31-5.36-12.44-13.62-12.38-.17,0-.25-.08-.26-.25h0c0-.12.05-.18.16-.19,10.07-1.1,12.2-8.73,10.74-17.2-1.13-6.58-6.39-8.28-12.2-8.42-.09,0-.13-.04-.13-.12h0c0-.11.05-.16.14-.17,5.71-.31,10.68.04,14.9,1.05,11.31,2.72,11.25,17.18,2.03,22.25-2.58,1.42-5.52,2.24-8.83,2.46-.03,0-.06.03-.06.07h0l.03.25c0,.12.07.18.2.18Z"/>
    <path class="cls-1" d="m80.19,29.04c.15-.06.32.02.37.17.01.03.02.06.02.1.03,10.97.04,21.88.01,32.73,0,3.07,1.13,5.83,4.15,6.99.81.31.78.47-.09.47l-17.77-.02c-.75,0-.78-.15-.09-.45,2.75-1.17,4.2-3.25,4.26-6.33.14-7.11.13-14.69-.02-22.76-.06-3.09-1.49-5.2-4.28-6.34-.58-.24-.56-.42.06-.53,4.03-.73,8.49-2.07,13.38-4.03Z"/>
    <path class="cls-1" d="m160.37,41.73c0-3.51-.69-6.83-4.43-8.12-.63-.22-.62-.39.04-.52,4.47-.86,8.92-2.2,13.36-4.03.3-.13.45-.02.45.31-.03,10.33-.02,21.34.03,33.03.01,3.24,1.33,5.4,3.95,6.48.95.39.91.59-.12.6l-18.02.03s-.03,0,0-.02c3.16-1.93,4.74-4.38,4.74-7.34,0-6.81,0-13.61,0-20.42Z"/>
    <path class="cls-1" d="m229.39,41.08c0-3.42-1.06-6.23-4.69-7.27-.73-.21-.72-.36.03-.47,4.61-.66,9.25-2.23,13.79-4.05.15-.06.32.02.37.17.01.03.02.06.02.1,0,16.9-.01,32.88-.01,47.95,0,3.34.94,5.74,4.07,7.34.53.27.5.4-.1.4h-17.28c-.63,0-.67-.16-.11-.47,2.38-1.31,3.87-3.5,3.88-6.26.05-10.35.06-22.83.03-37.44Z"/>
    <path class="cls-1" d="m302.46,37.69c-1.05-3.16-3.13-6.45-6.38-7.74-.79-.31-.76-.44.09-.38,10.35.77,16.55,5.97,18.6,15.6,2.4,11.26-4.35,23.14-16.39,24.35-1.77.17-1.85-.13-.25-.9,2.17-1.05,3.73-3.86,4.5-6.04,2.79-7.89,2.73-16.19-.17-24.89Z"/>
    <path class="cls-1" d="m179.18,55.36c-2.98-12.67,3.95-24.75,17.36-25.78.55-.04.57.06.08.31-9.6,4.78-8.35,22.87-5.64,31.29.85,2.63,3.4,7.93,6.54,7.9.13,0,.19.07.2.2h0c0,.12-.06.18-.17.19-8.7.07-16.4-5.71-18.37-14.11Z"/>
    <path class="cls-1" d="m207.14,64.28c3.33-7.66,3.67-16.07,1.02-25.23-.95-3.28-2.93-7.28-6.19-8.76-1.29-.58-1.23-.8.17-.66,9.01.91,14.75,5.25,17.21,13.02,3.88,12.22-2.88,26.14-16.54,26.92-1.07.06-1.12-.13-.15-.58,2.03-.93,3.53-2.5,4.48-4.71Z"/>
    <path class="cls-1" d="m273.71,54.17c-2.51-12.29,4.63-23.19,17.37-24.63.7-.08.75.07.15.44-1.1.69-2.09,1.07-2.95,2.15-5.67,7.18-5.25,19.38-2.94,27.79.84,3.05,3.09,8.4,6.6,9.14.84.18.83.31-.02.39-.89.08-1.74.04-2.57-.13-8.74-1.8-13.95-6.85-15.64-15.15Z"/>
    <path class="cls-1" d="m112.8,66.88c8.51-5.95,9.26-25.14,2.83-32.47-2.49-2.84-5.43-3.16-8.8-.97-.03.02-.06,0-.08-.02l-.16-.24c-.05-.08-.04-.15.04-.21,7.44-5.63,16.91-3.72,21.24,4.56,2.29,4.37,3.02,9.59,2.2,15.64-1.58,11.71-11.51,19.13-23.14,15.21-.7-.23-.68-.35.06-.36,1.93-.01,4.18,0,5.81-1.14Z"/>
    <path class="cls-1" d="m254.23,61.81c3.66-7.45,3.8-19.3-.3-25.76-2.48-3.91-5.89-4.76-10.23-2.54-.11.05-.18.02-.21-.09-.04-.15,0-.27.12-.36,9.15-6.76,19.63-2.66,22.79,7.86,2.05,6.8,1.49,15.5-2.65,21.39-4.54,6.47-11.25,8.49-20.12,6.05-.08-.02-.11-.07-.1-.16l.05-.25s.02-.05.05-.05c4.72.7,8.25-1.33,10.6-6.09Z"/>
    <path class="cls-1" d="m345.26,65.68c-1.37,1.59-3.15,2.7-5.35,3.35-5.56,1.65-10.34.4-14.35-3.73-2.21-2.27-3.66-5.55-4.36-9.84-1.6-9.77,1.7-23.04,13.24-25.23,3.77-.72,7.48-.38,11.13,1.02.04.02.05.05.04.09l-.07.24c-.07.2-.2.27-.41.21-7.89-2.3-11.99,5.36-13.01,12.1-.8,5.25-.83,9.76-.1,13.52,1.24,6.35,5.53,12.91,13,8,.74-.49.82-.4.24.27Z"/>
  </g>
</svg>