<?xml version="1.0" encoding="UTF-8"?>
<svg id="Layer_2" data-name="Layer 2" xmlns="http://www.w3.org/2000/svg" viewBox="0 0 754 771">
  <defs>
    <style>
      .cls-1, .cls-2 {
        fill: none;
        stroke: #b6a5d5;
      }

      .cls-1, .cls-3 {
        stroke-width: 12px;
      }

      .cls-4 {
        fill: #fff;
      }

      .cls-5, .cls-3, .cls-6 {
        fill: #6d4baa;
      }

      .cls-7 {
        fill: #feffff;
      }

      .cls-2 {
        stroke-width: 2px;
      }

      .cls-3, .cls-6 {
        stroke: #fff;
        stroke-miterlimit: 10;
      }

      .cls-6 {
        stroke-width: 11px;
      }
    </style>
  </defs>
  <g id="Layer_1-2" data-name="Layer 1">
    <rect class="cls-5" x="370" y="382" width="384" height="384"/>
    <g>
      <rect class="cls-4" x="6" y="6" width="358" height="372"/>
      <path class="cls-5" d="m358,12v360H12V12h346m12-12H0v384h370V0h0Z"/>
    </g>
    <rect class="cls-5" x="370" width="384" height="384"/>
    <g>
      <rect class="cls-4" x="376" y="383" width="372" height="382"/>
      <path class="cls-5" d="m742,389v370h-360v-370h360m12-12h-384v394h384v-394h0Z"/>
    </g>
    <g>
      <rect class="cls-5" x="6" y="400" width="358" height="362" rx="10.24" ry="10.24"/>
      <path class="cls-4" d="m353.76,406c2.34,0,4.24,1.9,4.24,4.24v341.53c0,2.34-1.9,4.24-4.24,4.24H16.24c-2.34,0-4.24-1.9-4.24-4.24v-341.53c0-2.34,1.9-4.24,4.24-4.24h337.53m0-12H16.24c-8.97,0-16.24,7.27-16.24,16.24v341.53c0,8.97,7.27,16.24,16.24,16.24h337.53c8.97,0,16.24-7.27,16.24-16.24v-341.53c0-8.97-7.27-16.24-16.24-16.24h0Z"/>
    </g>
    <path class="cls-2" d="m253.49,175.55c14.5-7.78,22.43-19.75,23.78-35.89,4.27-51.99-25.06-69.42-72.36-69.74-26.7-.18-52.79-.04-78.28.43-16.03.28-24.05,9.12-24.05,26.5,0,61.36,0,124.01,0,187.96,0,17.17,8,28.47,26.71,28.79,30.75.57,60,.53,87.77-.11,51.88-1.17,82.06-39.88,71.56-91.55-3.7-18.09-15.37-31.94-35.03-41.54-3.2-1.56-3.23-3.18-.11-4.85" vector-effect="non-scaling-stroke"/>
    <path class="cls-2" d="m149.35,113.96l-.21,48.42c0,1.41,1.15,2.56,2.56,2.56h0l54.49.21c13.55.06,24.58-10.59,24.63-23.78,0,0,0,0,0,0v-5.76c.06-13.19-10.88-23.94-24.42-23.99l-54.49-.16c-1.39,0-2.53,1.11-2.56,2.51" vector-effect="non-scaling-stroke"/>
    <path class="cls-2" d="m149.46,209.19l-.32,59.61c-.03,1.41,1.09,2.58,2.51,2.61.02,0,.04,0,.05,0l63.51.32c16.22.08,29.45-13.76,29.54-30.93v-2.56c.09-17.17-12.98-31.16-29.21-31.25,0,0,0,0,0,0l-63.51-.32c-1.39,0-2.53,1.11-2.56,2.51" vector-effect="non-scaling-stroke"/>
    <path class="cls-5" d="m253.49,175.55c-3.13,1.67-3.09,3.29.11,4.85,19.66,9.6,31.34,23.44,35.03,41.54,10.5,51.67-19.68,90.38-71.56,91.55-27.76.64-57.02.68-87.77.11-18.72-.32-26.71-11.62-26.71-28.79,0-63.95,0-126.6,0-187.96,0-17.38,8.02-26.22,24.05-26.5,25.49-.46,51.58-.6,78.28-.43,47.3.32,76.62,17.76,72.36,69.74-1.35,16.14-9.28,28.1-23.78,35.89Zm-104.14-61.59l-.21,48.42c0,1.41,1.15,2.56,2.56,2.56h0l54.49.21c13.55.06,24.58-10.59,24.63-23.78,0,0,0,0,0,0v-5.76c.06-13.19-10.88-23.94-24.42-23.99l-54.49-.16c-1.39,0-2.53,1.11-2.56,2.51Zm.11,95.23l-.32,59.61c-.03,1.41,1.09,2.58,2.51,2.61.02,0,.04,0,.05,0l63.51.32c16.22.08,29.45-13.76,29.54-30.93v-2.56c.09-17.17-12.98-31.16-29.21-31.25,0,0,0,0,0,0l-63.51-.32c-1.39,0-2.53,1.11-2.56,2.51Z"/>
    <path class="cls-7" d="m149.35,113.96c.03-1.39,1.17-2.51,2.56-2.51l54.49.16c13.55.06,24.48,10.8,24.42,23.99v5.76c-.06,13.19-11.09,23.84-24.63,23.78,0,0,0,0,0,0l-54.49-.21c-1.41,0-2.56-1.15-2.56-2.56h0s.21-48.42.21-48.42Z"/>
    <path class="cls-7" d="m149.46,209.19c.03-1.39,1.17-2.51,2.56-2.51l63.51.32c16.23.08,29.31,14.07,29.22,31.24h0v2.57c-.09,17.17-13.32,31.01-29.54,30.93l-63.51-.32c-1.41,0-2.56-1.15-2.56-2.56,0-.02,0-.04,0-.05l.32-59.61Z"/>
    <path class="cls-6" d="m736,364.76c0,.96-.79,1.74-1.77,1.74h-347.97c-.98,0-1.77-.78-1.77-1.74h0V21.24c0-.96.79-1.74,1.77-1.74h347.97c.97,0,1.77.78,1.77,1.74v343.51Zm-175.88-32.27c74,.13,134.1-62.49,134.24-139.85h0c.14-77.37-59.74-140.19-133.74-140.32h0c-74-.13-134.1,62.49-134.24,139.85,0,0,0,0,0,0-.14,77.37,59.74,140.19,133.74,140.32h0Z"/>
    <path class="cls-7" d="m561.88,333.49c-73.05-.13-132.16-62.95-132.03-140.32,0,0,0,0,0,0,.13-77.37,59.47-139.98,132.52-139.86h0c73.05.13,132.16,62.95,132.03,140.32h0c-.13,77.37-59.47,139.98-132.52,139.86h0Zm.18-46.39c44.97,0,81.43-41.76,81.43-93.27s-36.46-93.27-81.43-93.27c-44.97,0-81.43,41.76-81.43,93.27h0c0,51.51,36.46,93.27,81.43,93.27h0Z"/>
    <path class="cls-5" d="m557.92,731.85c-78.87-.14-142.69-67.88-142.55-151.3h0c.15-83.42,64.2-150.94,143.08-150.8,0,0,0,0,0,0,78.87.14,142.69,67.88,142.55,151.3-.15,83.42-64.2,150.94-143.08,150.8h0Zm.07-51.87c47.56,0,86.11-44.17,86.11-98.66s-38.55-98.66-86.11-98.66c-47.56,0-86.11,44.17-86.11,98.66h0c0,54.49,38.55,98.66,86.11,98.66h0Z"/>
    <path class="cls-1" d="m123.28,561.45c.17-35.08.12-69.29-.12-102.63-.25-35.48-49.88-34.23-50.01.94-.29,74.99-.33,150.69-.12,227.09.06,35.92,47.95,35.92,49.7,4.43,1.12-20.53,1.31-40.26.56-59.17-.12-2.87.85-5.28,2.93-7.23l34.04-32.61c.94-.87,2.38-.83,3.22.08.05.05.1.11.14.17,25.44,34,53.5,71,84.18,110.99,20.51,26.81,61.85-1.87,41.46-29.49-29.39-39.82-58.78-78.96-88.17-117.41-.86-1.14-.75-2.73.25-3.74,27.89-27.14,55.41-53.52,82.56-79.13,12.78-12.1,13.28-23.69,2.24-35.98-9.85-10.85-20.93-10.25-33.23,1.81-48.22,47.1-89.98,88.35-125.27,123.77-2.91,2.95-4.36,2.33-4.36-1.87" vector-effect="non-scaling-stroke"/>
    <g>
      <rect class="cls-4" x="6" y="390" width="362" height="375"/>
      <path class="cls-5" d="m362,396v363H12v-363h350m12-12H0v387h374v-387h0Z"/>
    </g>
    <path class="cls-3" d="m357,752.32c0,.93-.72,1.68-1.6,1.68H16.6c-.88,0-1.6-.75-1.6-1.68v-356.66c0-.93.72-1.68,1.6-1.68h338.8c.88,0,1.6.75,1.6,1.68h0v356.66Zm-236.05-190.86c.16-35.08.12-69.29-.12-102.63-.24-35.48-48.91-34.23-49.03.94-.29,74.99-.33,150.69-.12,227.09.06,35.92,47.01,35.92,48.73,4.43,1.1-20.53,1.28-40.26.55-59.17-.12-2.87.84-5.28,2.87-7.23l33.38-32.61c.92-.87,2.33-.83,3.16.08.05.05.1.11.14.17,24.94,34,52.45,71,82.53,110.99,20.11,26.81,60.65-1.87,40.66-29.49-28.82-39.82-57.63-78.96-86.45-117.41-.84-1.14-.74-2.73.24-3.74,27.35-27.14,54.33-53.52,80.94-79.13,12.53-12.1,13.02-23.69,2.2-35.98-9.66-10.85-20.52-10.25-32.59,1.81-47.28,47.1-88.22,88.35-122.82,123.77-2.85,2.95-4.28,2.33-4.28-1.87Z"/>
    <path class="cls-7" d="m127.65,563.33c35.29-35.42,77.05-76.67,125.27-123.77,12.3-12.05,23.38-12.66,33.23-1.81,11.04,12.28,10.54,23.88-2.24,35.98-27.14,25.61-54.66,51.98-82.56,79.13-1,1.01-1.11,2.6-.25,3.74,29.39,38.45,58.78,77.59,88.17,117.41,20.39,27.62-20.95,56.3-41.46,29.49-30.68-39.99-58.74-76.98-84.18-110.99-.75-.99-2.17-1.17-3.19-.4-.06.05-.12.1-.18.15l-34.04,32.61c-2.08,1.95-3.06,4.36-2.93,7.23.75,18.91.56,38.64-.56,59.17-1.75,31.49-49.63,31.49-49.7-4.43-.21-76.4-.17-152.1.12-227.09.12-35.17,49.76-36.41,50.01-.94.25,33.34.29,67.55.12,102.63,0,4.2,1.45,4.82,4.36,1.87Z"/>
  </g>
</svg>