<?xml version="1.0" encoding="UTF-8"?>
<svg id="Layer_2" data-name="Layer 2" xmlns="http://www.w3.org/2000/svg" viewBox="0 0 188 188">
  <defs>
    <style>
      .cls-1 {
        fill: none;
        stroke: #8a35ed;
        stroke-miterlimit: 10;
        stroke-width: 3px;
      }

      .cls-2 {
        fill: #8a35ed;
      }
    </style>
  </defs>
  <g id="Layer_1-2" data-name="Layer 1">
    <circle class="cls-1" cx="94" cy="94" r="92.5"/>
    <path class="cls-2" d="m116.32,55.85c-6.09.27-10.22,2.63-12.39,7.07-3.06,6.26.22,14.92,1.66,21.16,1.15,4.94-.52,7.96-4.99,9.07-1.46.37-1.44.54.06.51,5.01-.08,9.08-1.9,12.21-5.47,4.91-5.62,1.42-13.36-.38-19.33-1.35-4.49-1.72-11,3.88-12.7.79-.24.78-.34-.05-.31" vector-effect="non-scaling-stroke"/>
    <path class="cls-2" d="m123.31,107.51c-.03,2.59-1.67,4.8-4.03,5.98-.85.43-.8.64.15.64h17.97c.97.01,1.02-.2.15-.63-2.75-1.34-4.12-3.6-4.12-6.77.01-12.59-.01-25.78-.08-39.57,0-2.24-.47-4.33-1.39-6.28-2.11-4.43-6-4.51-10.39-5.15-.42-.07-.51.08-.27.43,1.25,1.8,1.88,3.84,1.91,6.11.21,15.35.24,30.43.1,45.24" vector-effect="non-scaling-stroke"/>
    <path class="cls-2" d="m145.04,82.56s.03-.07.06-.07h0c3.31-.22,6.25-1.04,8.83-2.46,9.22-5.07,9.28-19.53-2.03-22.25-4.22-1.01-9.19-1.36-14.9-1.05-.09,0-.14.06-.14.16h0c0,.09.04.13.13.13,5.81.14,11.07,1.84,12.2,8.42,1.46,8.47-.67,16.1-10.74,17.2-.11.01-.17.07-.16.18h0c0,.18.09.26.26.26,8.26-.06,12.8,4.07,13.62,12.38.66,6.61-.6,16.85-8.77,18.29-.8.14-.79.2.02.19,9.12-.19,20.01-4.06,21.08-14.41,1.21-11.58-9.45-16.81-19.23-16.54-.13,0-.19-.06-.2-.18l-.03-.25" vector-effect="non-scaling-stroke"/>
    <path class="cls-2" d="m116.32,55.85c.83-.03.84.07.05.31-5.6,1.7-5.23,8.21-3.88,12.7,1.8,5.97,5.29,13.71.38,19.33-3.13,3.57-7.2,5.39-12.21,5.47-1.5.03-1.52-.14-.06-.51,4.47-1.11,6.14-4.13,4.99-9.07-1.44-6.24-4.72-14.9-1.66-21.16,2.17-4.44,6.3-6.8,12.39-7.07Z"/>
    <path class="cls-2" d="m119.28,113.49c2.36-1.18,4-3.39,4.03-5.98.14-14.81.11-29.89-.1-45.24-.03-2.27-.66-4.31-1.91-6.11-.24-.35-.15-.5.27-.43,4.39.64,8.28.72,10.39,5.15.92,1.95,1.38,4.04,1.39,6.28.07,13.79.09,26.98.08,39.57,0,3.17,1.37,5.43,4.12,6.77.87.43.82.64-.15.64h-17.97c-.95-.01-1-.22-.15-.65Z"/>
    <path class="cls-2" d="m145.27,82.99c9.78-.27,20.44,4.96,19.23,16.54-1.07,10.35-11.96,14.22-21.08,14.41-.81.01-.82-.05-.02-.19,8.17-1.44,9.43-11.68,8.77-18.29-.82-8.31-5.36-12.44-13.62-12.38-.17,0-.25-.08-.26-.25h0c0-.12.05-.18.16-.19,10.07-1.1,12.2-8.73,10.74-17.2-1.13-6.58-6.39-8.28-12.2-8.42-.09,0-.13-.04-.13-.12h0c0-.11.05-.16.14-.17,5.71-.31,10.68.04,14.9,1.05,11.31,2.72,11.25,17.18,2.03,22.25-2.58,1.42-5.52,2.24-8.83,2.46-.03,0-.06.03-.06.07h0l.03.25c0,.12.07.18.2.18Z"/>
    <path class="cls-2" d="m71.97,72.53c-.62.13-1.15.43-1.58.92-.45.51-.37.63.26.37,4.51-1.83,8.16-.67,10.96,3.48,5.41,8.03,9.63,21.17,22.89,15.41,2.47-1.07,4.46-2.45,5.95-4.12.11-.12.1-.23-.01-.34l-.2-.2s-.06-.03-.09,0c-2.31,2.38-4.67,2.9-7.08,1.57-3.35-1.85-6.48-8.33-8.44-11.57-1.55-2.56-4.46-6.14-7.22-7.43-4.98-2.33-9.83-1.82-14.55,1.52-.27.19-.56.32-.89.39" vector-effect="non-scaling-stroke"/>
    <path class="cls-2" d="m56.73,137.29l-.91.85c-.41.38-.33.57.23.56,5.53-.09,10.38-.06,14.55.08,2.12.07,2.2-.31.24-1.13-2.41-1.01-3.61-2.94-3.62-5.78-.05-18.69-.05-37.38-.01-56.05,0-.19-.15-.35-.34-.35-.04,0-.08,0-.12.02-4.53,1.59-9.08,2.89-13.66,3.9-.94.21-.95.45-.02.72,4.71,1.38,4.65,5.21,4.65,9.21,0,15.65-.03,30.34-.1,44.09,0,.93-.13,1.92-.37,2.99-.09.35-.26.64-.52.89" vector-effect="non-scaling-stroke"/>
    <path class="cls-2" d="m29.49,124.65c.7,4.29,2.15,7.57,4.36,9.84,4.01,4.13,8.79,5.38,14.35,3.73,2.2-.65,3.98-1.76,5.35-3.35.58-.67.5-.76-.24-.27" vector-effect="non-scaling-stroke"/>
    <path class="cls-2" d="m53.31,134.6c-7.47,4.91-11.76-1.65-13-8-.73-3.76-.7-8.27.1-13.52,1.02-6.74,5.12-14.4,13.01-12.1.21.06.34,0,.41-.21l.07-.24s0-.07-.04-.09c-3.65-1.4-7.36-1.74-11.13-1.02-11.54,2.19-14.84,15.46-13.24,25.23" vector-effect="non-scaling-stroke"/>
    <path class="cls-2" d="m72.86,72.14c4.72-3.34,9.57-3.85,14.55-1.52,2.76,1.29,5.67,4.87,7.22,7.43,1.96,3.24,5.09,9.72,8.44,11.57,2.41,1.33,4.77.81,7.08-1.57.03-.03.06-.03.09,0l.2.2c.11.11.12.22.01.34-1.49,1.67-3.48,3.05-5.95,4.12-13.26,5.76-17.48-7.38-22.89-15.41-2.8-4.15-6.45-5.31-10.96-3.48-.63.26-.71.14-.26-.37.43-.49.96-.79,1.58-.92.33-.07.62-.2.89-.39Z"/>
    <path class="cls-2" d="m57.25,136.4c.24-1.07.36-2.06.37-2.99.07-13.75.1-28.44.1-44.09,0-4,.06-7.83-4.65-9.21-.93-.27-.92-.51.02-.72,4.58-1.01,9.13-2.31,13.66-3.9.18-.07.37.03.44.21.01.04.02.08.02.12-.04,18.67-.04,37.36.01,56.05,0,2.84,1.21,4.77,3.62,5.78,1.96.82,1.88,1.2-.24,1.13-4.17-.14-9.02-.17-14.55-.08-.56,0-.64-.18-.23-.56l.91-.85c.26-.25.43-.54.52-.89Z"/>
    <path class="cls-2" d="m29.49,124.65c-1.6-9.77,1.7-23.04,13.24-25.23,3.77-.72,7.48-.38,11.13,1.02.04.02.05.05.04.09l-.07.24c-.07.2-.2.27-.41.21-7.89-2.3-11.99,5.36-13.01,12.1-.8,5.25-.83,9.76-.1,13.52,1.24,6.35,5.53,12.91,13,8,.74-.49.82-.4.24.27-1.37,1.59-3.15,2.7-5.35,3.35-5.56,1.65-10.34.4-14.35-3.73-2.21-2.27-3.66-5.55-4.36-9.84"/>
  </g>
</svg>